{"title":"Nip.Tuck.S05E01.Carly.Summers.DVDRip.XviD-SAiNTS - [C7-117]","uid":5021366,"size":366667776,"categoryP":"video","categoryS":"tv_shows","magnet":"?xt=urn:btih:ba0672b3a6339abfd6d0017c40eb029af04b20dc&amp;dn=Nip.Tuck.S05E01.Carly.Summers.DVDRip.XviD-SAiNTS+-+%5BC7-117%5D&amp;tr=udp%3A%2F%2Ftracker.openbittorrent.com%3A80&amp;tr=udp%3A%2F%2Fopen.demonii.com%3A1337&amp;tr=udp%3A%2F%2Ftracker.coppersurfer.tk%3A6969&amp;tr=udp%3A%2F%2Fexodus.desync.com%3A6969","seeders":1,"leechers":1,"uploader":"C7-117","files":-1,"time":1248473121,"description":"ok first i did not rip this file im simply uploading it here SAiNTS is the original team/person that uploaded any way here is a bunch of info about the video\n \nComplete name: Nip.Tuck.S05E01.Carly.Summers.DVDRip.XviD-SAiNTS [C7-117].avi\nFormat                           : AVI\nFormat/Info                      : Audio Video Interleave\nFile size                        : 350 MiB\nDuration                         : 49mn 17s\nOverall bit rate                 : 992 Kbps\nWriting application              : VirtualDubMod 1.5.10.2 (build 2540/release)\nWriting library                  : VirtualDubMod build 2540/release\n\nVideo\nFormat                           : MPEG-4 Visual\nFormat profile                   : Streaming Video@L1\nFormat settings, BVOP            : Yes\nFormat settings, QPel            : No\nFormat settings, GMC             : No warppoints\nFormat settings, Matrix          : Default (H.263)\nMuxing mode                      : Packed bitstream\nCodec ID                         : XVID\nCodec ID/Hint                    : XviD\nDuration                         : 49mn 17s\nBit rate                         : 848 Kbps\nWidth                            : 640 pixels\nHeight                           : 352 pixels\nDisplay aspect ratio             : 16/9\nFrame rate                       : 25.000 fps\nResolution                       : 24 bits\nColorimetry                      : 4:2:0\nScan type                        : Progressive\nBits/(Pixel*Frame)               : 0.150\nStream size                      : 299 MiB (85%)\nWriting library                  : XviD 1.1.2 (UTC 2006-11-01)\n\nAudio\nFormat                           : MPEG Audio\nFormat version                   : Version 1\nFormat profile                   : Layer 3\nCodec ID                         : 55\nCodec ID/Hint                    : MP3\nDuration                         : 49mn 17s\nBit rate mode                    : Variable\nBit rate                         : 132 Kbps\nNominal bit rate                 : 128 Kbps\nChannel(s)                       : 2 channels\nSampling rate                    : 48.0 KHz\nResolution                       : 16 bits\nStream size                      : 46.4 MiB (13%)\nAlignment                        : Aligned on interleaves\nInterleave, duration             : 24 ms (0.60 video frame)\nInterleave, preload duration     : 140 ms\nWriting library                  : LAME3.96r\nEncoding settings                : -m j -V 4 -q 3 -lowpass 17.5 --abr 128\n\nSeed as much as you can ill be uploading at max ~190kps \t","torrent":{"xt":"urn:btih:ba0672b3a6339abfd6d0017c40eb029af04b20dc","amp;dn":"Nip.Tuck.S05E01.Carly.Summers.DVDRip.XviD-SAiNTS+-+%5BC7-117%5D","amp;tr":["udp%3A%2F%2Ftracker.openbittorrent.com%3A80","udp%3A%2F%2Fopen.demonii.com%3A1337","udp%3A%2F%2Ftracker.coppersurfer.tk%3A6969","udp%3A%2F%2Fexodus.desync.com%3A6969"],"infoHash":"ba0672b3a6339abfd6d0017c40eb029af04b20dc","infoHashBuffer":{"type":"Buffer","data":[186,6,114,179,166,51,154,191,214,208,1,124,64,235,2,154,240,75,32,220]},"announce":[],"urlList":[]}}